<svg width="41" height="50" viewBox="0 0 41 50" fill="none" xmlns="http://www.w3.org/2000/svg">
<path d="M12.4187 42.0042C9.94792 39.775 9.22709 35.0958 10.2563 31.7042C12.0396 33.8417 14.5125 34.5208 17.0729 34.9021C21.025 35.4917 24.9063 35.2708 28.5771 33.4896C28.9979 33.2854 29.3854 33.0125 29.8438 32.7396C30.1896 33.725 30.2792 34.7188 30.1583 35.7333C29.8667 38.2021 28.6208 40.1083 26.6417 41.5542C25.85 42.1313 25.0125 42.6479 24.1938 43.1938C21.6833 44.8688 21.0042 46.8333 21.9479 49.6917L22.0396 50C20.8383 49.4845 19.8178 48.6229 19.1083 47.525C18.3702 46.402 17.9762 45.0877 17.975 43.7438C17.9667 43.0771 17.9667 42.4062 17.875 41.7479C17.6542 40.1458 16.8917 39.4292 15.4563 39.3875C13.9833 39.3458 12.8167 40.2438 12.5083 41.6583C12.4833 41.7688 12.45 41.875 12.4146 42.0021L12.4187 42.0042ZM0 32.7438C0 32.7438 6.75 29.4625 13.5208 29.4625L18.6271 13.7021C18.8188 12.9396 19.3771 12.4229 20.0063 12.4229C20.6354 12.4229 21.1938 12.9396 21.3854 13.7021L26.4896 29.4625C34.5104 29.4625 40.0125 32.7438 40.0125 32.7438L28.5229 1.51458C28.1938 0.59375 27.6375 0 26.8875 0H13.125C12.375 0 11.8438 0.59375 11.4917 1.51458L0 32.7438Z" fill="white"/>
</svg>
