<svg width="40" height="50" viewBox="0 0 40 50" fill="none" xmlns="http://www.w3.org/2000/svg">
<g clip-path="url(#clip0_4_119)">
<path d="M10 50C15.52 50 20 46.2667 20 41.6667V33.3333H10C4.48 33.3333 0 37.0667 0 41.6667C0 46.2667 4.48 50 10 50Z" fill="#0ACF83"/>
<path d="M0 25C0 20.4 4.48 16.6667 10 16.6667H20V33.3333H10C4.48 33.3333 0 29.6 0 25Z" fill="#A259FF"/>
<path d="M0 8.33333C0 3.73333 4.48 0 10 0H20V16.6667H10C4.48 16.6667 0 12.9333 0 8.33333Z" fill="#F24E1E"/>
<path d="M20 0H30C35.52 0 40 3.73333 40 8.33333C40 12.9333 35.52 16.6667 30 16.6667H20V0Z" fill="#FF7262"/>
<path d="M40 25C40 29.6 35.52 33.3333 30 33.3333C24.48 33.3333 20 29.6 20 25C20 20.4 24.48 16.6667 30 16.6667C35.52 16.6667 40 20.4 40 25Z" fill="#1ABCFE"/>
</g>
<defs>
<clipPath id="clip0_4_119">
<rect width="40" height="50" fill="white"/>
</clipPath>
</defs>
</svg>
