<svg width="50" height="50" viewBox="0 0 50 50" fill="none" xmlns="http://www.w3.org/2000/svg">
<g clip-path="url(#clip0_4_100)">
<path d="M16.1451 38.6522C16.1451 38.6522 13.5736 39.7613 17.9753 40.1366C23.308 40.5877 26.0332 40.5231 31.9099 39.6981C31.9099 39.6981 33.455 40.4166 35.6125 41.039C22.439 45.2264 5.79779 40.7964 16.1451 38.6522ZM14.5353 33.1877C14.5353 33.1877 11.6511 34.7712 16.0561 35.1091C21.7525 35.5449 26.2511 35.5806 34.0354 34.4689C34.0354 34.4689 35.1121 35.2785 36.8051 35.7212C20.8773 39.1756 3.13662 35.9936 14.5353 33.1877Z" fill="#5382A1"/>
<path d="M28.1062 23.9184C31.3523 26.69 27.2534 29.1842 27.2534 29.1842C27.2534 29.1842 35.4954 26.0286 31.7102 22.0769C28.175 18.3919 25.4637 16.5607 40.1407 10.2477C40.1407 10.2477 17.1028 14.5152 28.1062 23.9184Z" fill="#E76F00"/>
<path d="M45.5294 42.6939C45.5294 42.6939 47.4325 43.8568 43.4335 44.7565C35.8296 46.465 11.7848 46.9809 5.10515 44.8246C2.70409 44.05 7.20692 42.9749 8.62323 42.7491C10.1003 42.5116 10.9446 42.5559 10.9446 42.5559C8.27427 41.1607 -6.31519 45.2954 3.53393 46.4793C30.3936 49.71 52.4965 45.0247 45.5294 42.6939ZM17.3816 27.526C17.3816 27.526 5.15113 29.6806 13.0507 30.4629C16.386 30.7941 23.035 30.7192 29.2285 30.3343C34.2901 30.0178 39.3726 29.3444 39.3726 29.3444C39.3726 29.3444 37.5878 29.9113 36.2966 30.5652C23.8765 32.9879 -0.116845 31.8608 6.79054 29.3827C12.6321 27.2884 17.3816 27.526 17.3816 27.526ZM39.3221 36.6217C51.948 31.7558 46.1103 27.0798 42.0357 27.7098C41.0369 27.8639 40.5917 27.9974 40.5917 27.9974C40.5917 27.9974 40.9625 27.5668 41.6706 27.3803C49.7312 25.2785 55.9306 33.5793 39.0684 36.8669C39.0684 36.8671 39.2639 36.7376 39.3221 36.6217Z" fill="#5382A1"/>
<path d="M31.7102 0.0536151C31.7102 0.0536151 38.7026 5.24148 25.0784 13.2185C14.1533 19.6176 22.5871 23.2662 25.0739 27.4348C18.6967 23.1675 14.0165 19.4108 17.1564 15.9146C21.7647 10.7821 34.5314 8.29393 31.7102 0.0536151Z" fill="#E76F00"/>
<path d="M18.6224 49.8071C30.7414 50.3825 49.3515 49.4879 49.7922 45.2348C49.7922 45.2348 48.9451 46.8473 39.7765 48.1276C29.4327 49.5712 16.6751 49.4027 9.1084 48.4775C9.10859 48.4775 10.6572 49.4283 18.6224 49.8071Z" fill="#5382A1"/>
</g>
<defs>
<clipPath id="clip0_4_100">
<rect width="50" height="50" fill="white"/>
</clipPath>
</defs>
</svg>
