<svg width="44" height="44" viewBox="0 0 44 44" fill="none" xmlns="http://www.w3.org/2000/svg">
<path d="M0 0H43.75V43.75H0V0Z" fill="#F5DE19"/>
<path d="M29.3891 34.1797C29.7618 34.9369 30.341 35.5733 31.0597 36.0156C31.7785 36.4579 32.6076 36.6881 33.4516 36.6797C35.1547 36.6797 36.2437 35.8281 36.2437 34.6484C36.2437 33.2422 35.125 32.7391 33.25 31.9188L32.2219 31.4781C29.2531 30.2141 27.2844 28.6313 27.2844 25.2844C27.2844 22.2016 29.6281 19.8531 33.3047 19.8531C34.4948 19.7672 35.684 20.0336 36.7237 20.619C37.7635 21.2045 38.6079 22.0831 39.1516 23.1453L35.9375 25.2C35.7281 24.6733 35.3636 24.2227 34.8923 23.9079C34.421 23.5932 33.8651 23.4291 33.2984 23.4375C33.0512 23.4127 32.8015 23.4398 32.5653 23.5169C32.329 23.5939 32.1114 23.7194 31.9264 23.8852C31.7413 24.051 31.5928 24.2535 31.4903 24.4799C31.3879 24.7063 31.3337 24.9515 31.3312 25.2C31.3312 26.4328 32.0953 26.9328 33.8594 27.7L34.8875 28.1406C38.3812 29.6391 40.3562 31.1656 40.3562 34.5984C40.3562 38.3 37.4484 40.3281 33.5437 40.3281C32.0223 40.4251 30.5054 40.0796 29.176 39.3336C27.8465 38.5875 26.7614 37.4726 26.0516 36.1234L29.3891 34.1797ZM14.8656 34.5359C15.5109 35.6813 16.0984 36.65 17.5109 36.65C18.8609 36.65 19.7141 36.1219 19.7141 34.0672V20.0875H23.825V34.1219C23.825 38.3781 21.325 40.3156 17.6859 40.3156C16.3996 40.3859 15.1221 40.0654 14.0214 39.3961C12.9206 38.7268 12.0482 37.74 11.5187 36.5656L14.8656 34.5359Z" fill="black"/>
</svg>
