<svg width="50" height="50" viewBox="0 0 50 50" fill="none" xmlns="http://www.w3.org/2000/svg">
<path d="M49.7001 11.2917C49.7185 11.3582 49.7281 11.4267 49.7281 11.4957V22.2093C49.7281 22.4892 49.5746 22.7477 49.3254 22.887L40.103 28.0644V38.3258C40.103 38.4631 40.066 38.598 39.9957 38.717C39.9254 38.8359 39.8243 38.9348 39.7024 39.0036L20.4507 49.8091C20.4066 49.8334 20.3586 49.8489 20.3104 49.8657C20.2923 49.8714 20.2754 49.8822 20.2564 49.8871C20.1218 49.9217 19.9804 49.9217 19.8458 49.8871C19.8236 49.8815 19.8036 49.8695 19.7826 49.8618C19.7385 49.846 19.6925 49.8324 19.6505 49.8091L0.402681 39.0034C0.280369 38.935 0.178738 38.8363 0.108038 38.7173C0.0373388 38.5983 7.29143e-05 38.4633 0 38.3258L0 6.18487C0 6.11441 0.010101 6.04604 0.027972 5.97975C0.0339938 5.95722 0.0479798 5.93676 0.0561383 5.91422C0.0710956 5.87331 0.0852758 5.83127 0.107226 5.7932C0.122183 5.76782 0.144134 5.74737 0.162199 5.72388C0.185315 5.69263 0.206294 5.66044 0.233294 5.63297C0.25641 5.61063 0.286519 5.59396 0.312549 5.57445C0.341686 5.55097 0.367521 5.52559 0.400544 5.50703H0.401515L10.0258 0.104376C10.1477 0.0359914 10.2859 0 10.4265 0C10.5671 0 10.7052 0.0359914 10.8271 0.104376L20.4514 5.50703H20.4534C20.4854 5.52672 20.5126 5.55097 20.5416 5.5735C20.5676 5.59301 20.5967 5.61063 20.6197 5.63222C20.6478 5.66044 20.6678 5.69282 20.6917 5.72388C20.7088 5.74737 20.7319 5.76782 20.7459 5.7932C20.7688 5.83222 20.7819 5.87331 20.798 5.91441C20.8059 5.93676 20.8199 5.95722 20.826 5.9807C20.8444 6.04718 20.8539 6.11593 20.8541 6.18487V26.2595L28.8739 21.757V11.4947C28.8739 11.4265 28.884 11.357 28.9021 11.2917C28.9091 11.2682 28.9221 11.2477 28.9301 11.2254C28.9462 11.1843 28.9602 11.1421 28.9821 11.1042C28.9971 11.0788 29.019 11.0584 29.0363 11.0349C29.0602 11.0036 29.0802 10.9714 29.1082 10.944C29.1315 10.9216 29.1604 10.9049 29.1865 10.8854C29.2166 10.862 29.2426 10.8366 29.2747 10.818H29.2756L38.9009 5.41536C39.0228 5.34688 39.1609 5.31084 39.3016 5.31084C39.4422 5.31084 39.5804 5.34688 39.7022 5.41536L49.3265 10.818C49.3605 10.8375 49.3866 10.862 49.4167 10.8843C49.4415 10.904 49.4707 10.9216 49.4938 10.943C49.5218 10.9714 49.5418 11.0036 49.5657 11.0349C49.5839 11.0584 49.6059 11.0788 49.62 11.1042C49.643 11.1421 49.656 11.1843 49.6719 11.2254C49.681 11.2477 49.6941 11.2682 49.7001 11.2917ZM48.1237 21.7572V12.8481L44.7556 14.7385L40.1028 17.3506V26.2597L48.1247 21.7572H48.1237ZM38.4994 37.8737V28.9584L33.9225 31.507L20.8531 38.7798V47.7786L38.4994 37.8737ZM1.60431 7.53714V37.8737L19.2486 47.7779V38.7807L10.0311 33.6943L10.0282 33.6924L10.0243 33.6906C9.9932 33.6729 9.96698 33.6476 9.93803 33.6262C9.91278 33.6065 9.88384 33.5909 9.86189 33.5693L9.85995 33.5665C9.83392 33.5421 9.81585 33.5118 9.7939 33.4845C9.7737 33.458 9.74981 33.4356 9.73368 33.4084L9.73271 33.4053C9.71465 33.3762 9.70357 33.3409 9.69056 33.3078C9.67754 33.2784 9.66065 33.251 9.65249 33.2199V33.219C9.64258 33.1818 9.64064 33.1426 9.63656 33.1046C9.63267 33.0754 9.62451 33.046 9.62451 33.0167V12.0398L4.97242 9.42653L1.60431 7.53828V7.53714ZM10.4275 1.6843L2.40851 6.18487L10.4256 10.6852L18.4435 6.18373L10.4256 1.6843H10.4275ZM14.5977 29.771L19.2496 27.1601V7.53714L15.8819 9.42767L11.2286 12.0396V31.6623L14.5977 29.771ZM39.3015 6.99529L31.2836 11.4957L39.3015 15.9962L47.3184 11.4947L39.3015 6.99529ZM38.4992 17.3506L33.8463 14.7385L30.4784 12.8481V21.7572L35.1303 24.3684L38.4994 26.2597L38.4992 17.3506ZM20.0499 37.4275L31.8104 30.8813L37.6892 27.6101L29.6772 23.1125L20.4524 28.2905L12.0449 33.0099L20.0499 37.4275Z" fill="#FF2D20"/>
</svg>
